<svg width="1929" height="633" viewBox="0 0 1929 633" fill="none" xmlns="http://www.w3.org/2000/svg">
<path d="M317.404 279.149V151.756C317.404 135.023 330.969 121.458 347.702 121.458C364.435 121.458 378 135.023 378 151.756V231.192V286.059V327.958C378 337.347 370.389 344.958 361 344.958H277.75C276.231 344.958 275 346.189 275 347.708C275 349.227 276.231 350.458 277.75 350.458H357.252C368.711 350.458 378 359.747 378 371.206V450.659V530.095C378 546.828 364.435 560.393 347.702 560.393C330.969 560.393 317.404 546.828 317.404 530.095V406.206C317.404 386.876 301.734 371.206 282.404 371.206H161.601C142.271 371.206 126.601 386.876 126.601 406.206V528.593C126.601 546.156 112.363 560.393 94.8005 560.393C77.2376 560.393 63 546.156 63 528.593V282.386C63 264.823 77.247 250.586 94.8099 250.586C112.362 250.586 126.601 264.815 126.601 282.367C126.601 299.92 140.83 314.149 158.383 314.149H282.404C301.734 314.149 317.404 298.479 317.404 279.149Z" fill="black"/>
<circle cx="94" cy="153.458" r="31" fill="black"/>
<path d="M830.76 130.204L641.122 317.139C627.28 330.785 627.207 353.095 640.961 366.83L827.029 552.648C839.82 565.422 860.542 565.415 873.325 552.633C886.121 539.837 886.113 519.087 873.306 506.302L731.168 364.399C717.394 350.648 717.485 328.3 731.37 314.661L874.207 174.356C886.487 162.294 886.575 142.532 874.403 130.361C862.369 118.327 842.88 118.257 830.76 130.204Z" fill="black"/>
<rect x="1196.22" y="384.458" width="175.981" height="63" rx="31.5" transform="rotate(66 1196.22 384.458)" fill="black"/>
<path fill-rule="evenodd" clip-rule="evenodd" d="M1213.91 361.867C1203.89 365.999 1193.41 368.822 1182.72 370.285C1176.83 371.091 1170.94 372.458 1165 372.458V372.458H1132.5C1097.43 372.458 1069 400.888 1069 435.958V529.958C1069 547.079 1055.12 560.958 1038 560.958C1020.88 560.958 1007 547.079 1007 529.958V372.458C1007 338.216 1034.76 310.458 1069 310.458H1074.5H1078.5H1085.5H1101.5H1118.5H1126H1131H1137H1148.75H1165C1165.16 310.458 1165.32 310.459 1165.48 310.461C1165.49 310.462 1165.5 310.452 1165.5 310.44V310.44C1165.5 310.428 1165.51 310.419 1165.52 310.419C1174.08 310.416 1182.55 308.736 1190.46 305.474C1198.37 302.209 1205.56 297.424 1211.62 291.392C1217.67 285.36 1222.48 278.199 1225.75 270.317C1229.03 262.436 1230.72 253.989 1230.72 245.458C1230.72 236.927 1229.03 228.48 1225.75 220.598C1222.48 212.717 1217.67 205.556 1211.62 199.524C1205.56 193.491 1198.37 188.706 1190.46 185.442C1184.58 183.015 1178.38 181.464 1172.07 180.828C1172.03 180.824 1172 180.854 1172 180.892V180.892C1172 180.929 1171.97 180.958 1171.93 180.958C1170.22 180.954 1168.54 180.806 1166.9 180.526C1166.84 180.515 1166.78 180.509 1166.71 180.508C1166.36 180.502 1166 180.498 1165.64 180.497C1165.56 180.497 1165.5 180.436 1165.5 180.361V180.361C1165.5 180.297 1165.46 180.242 1165.39 180.228C1152 177.218 1142 165.256 1142 150.958V144.458C1142 131.162 1152.38 120.29 1165.48 119.503C1165.49 119.503 1165.5 119.493 1165.5 119.481V119.481C1165.5 119.468 1165.51 119.458 1165.52 119.458C1165.86 119.458 1166.2 119.459 1166.54 119.462C1166.69 119.459 1166.84 119.458 1167 119.458C1167.13 119.458 1167.25 119.462 1167.37 119.472C1183.35 119.707 1199.14 122.955 1213.91 129.049C1229.26 135.381 1243.2 144.662 1254.95 156.362C1266.7 168.062 1276.01 181.953 1282.37 197.24C1288.73 212.527 1292 228.911 1292 245.458C1292 262.004 1288.73 278.389 1282.37 293.676C1276.01 308.963 1266.7 322.853 1254.95 334.553C1243.2 346.253 1229.26 355.535 1213.91 361.867Z" fill="black"/>
<circle cx="1451" cy="531.653" r="31" fill="black"/>
<path fill-rule="evenodd" clip-rule="evenodd" d="M1483 242.153C1483 237.108 1489.12 234.6 1492.66 238.193L1616.4 363.725C1629.93 377.448 1652.05 377.52 1665.66 363.885L1763.85 265.568C1776.44 252.956 1798 261.876 1798 279.701V531.153C1798 548.549 1812.1 562.653 1829.5 562.653C1846.9 562.653 1861 548.549 1861 531.153V155.153C1861 137.756 1846.9 123.653 1829.5 123.653C1827.58 123.653 1825.71 123.824 1823.89 124.151C1816.6 124.829 1809.51 127.958 1803.93 133.539L1663.25 274.453C1649.62 288.109 1627.47 288.019 1613.94 274.253L1474.85 132.646C1467.63 125.303 1457.64 122.357 1448.2 123.823C1432.36 125.47 1420 138.868 1420 155.153V242.153C1420 259.549 1434.1 273.653 1451.5 273.653C1468.9 273.653 1483 259.549 1483 242.153V242.153Z" fill="black"/>
<path d="M577.992 124.564C581.163 105.822 587.488 67.7615 587.418 65.4578L596.961 124.564L587.418 147.458L577.992 124.564Z" fill="black"/>
<path d="M585.645 147.182L576.842 124.956L567.24 127.119L569.001 99.7855L574.306 109.587L572.076 71.6239L559 132.411L585.645 147.182Z" fill="black"/>
<path d="M589.355 147.044L598.158 124.818L607.76 126.981L605.999 99.6475L600.694 109.449L603.252 71.6239L616 132.273L589.355 147.044Z" fill="black"/>
<path fill-rule="evenodd" clip-rule="evenodd" d="M627.33 111.846C627.658 109.256 628.15 107.297 628.787 105.893C629.424 104.489 630.182 103.688 631.019 103.324C631.851 102.961 632.865 102.984 634.114 103.451C635.368 103.919 636.81 104.817 638.444 106.126C641.71 108.743 645.635 112.915 650.213 118.255C654.388 123.125 659.086 128.943 664.3 135.401L664.3 135.401L664.305 135.406C664.713 135.912 665.124 136.422 665.539 136.935L665.473 136.988C665.98 137.615 666.482 138.237 666.98 138.853L666.98 138.854C672.191 145.307 676.9 151.138 681.086 156.021C685.667 161.366 689.648 165.604 692.998 168.289C694.673 169.631 696.217 170.607 697.623 171.132C699.034 171.659 700.353 171.748 701.524 171.238C702.69 170.729 703.604 169.672 704.304 168.128C705.004 166.585 705.514 164.508 705.849 161.867C707.146 151.622 713.244 145.385 720.386 141.732C727.548 138.069 735.736 137.022 741.08 137.187L741.113 136.114C735.635 135.945 727.258 137.012 719.897 140.776C712.518 144.551 706.136 151.055 704.784 161.732C704.456 164.321 703.964 166.28 703.326 167.685C702.69 169.089 701.931 169.889 701.095 170.254C700.263 170.617 699.248 170.593 697.999 170.127C696.745 169.659 695.303 168.761 693.67 167.452C690.403 164.834 686.478 160.663 681.901 155.323C677.726 150.452 673.028 144.634 667.813 138.177L667.813 138.176L667.809 138.171C667.4 137.665 666.989 137.156 666.574 136.643L666.64 136.59C666.133 135.962 665.631 135.34 665.134 134.724L665.133 134.724C659.922 128.27 655.214 122.439 651.028 117.556C646.446 112.212 642.466 107.973 639.115 105.288C637.44 103.946 635.896 102.97 634.49 102.445C633.079 101.918 631.76 101.829 630.59 102.34C629.423 102.848 628.51 103.906 627.809 105.449C627.11 106.992 626.599 109.07 626.265 111.711C624.967 121.956 618.87 128.192 611.727 131.845C604.565 135.509 596.377 136.555 591.033 136.39L591 137.463C596.479 137.632 604.856 136.566 612.216 132.801C619.596 129.027 625.977 122.522 627.33 111.846Z" fill="black"/>
<path d="M672.14 115.819C672.14 119.213 671.136 122.269 669.532 124.466C667.928 126.664 665.747 127.98 663.377 127.98C661.007 127.98 658.825 126.664 657.222 124.466C655.618 122.269 654.614 119.213 654.614 115.819C654.614 112.426 655.618 109.37 657.222 107.172C658.825 104.975 661.007 103.659 663.377 103.659C665.747 103.659 667.928 104.975 669.532 107.172C671.136 109.37 672.14 112.426 672.14 115.819Z" stroke="black" stroke-width="0.819454"/>
<path d="M703.119 115.819C703.119 119.256 702.62 122.35 701.825 124.57C701.428 125.682 700.963 126.552 700.468 127.137C699.972 127.724 699.484 127.98 699.03 127.98C698.576 127.98 698.088 127.724 697.591 127.137C697.096 126.552 696.632 125.682 696.234 124.57C695.44 122.35 694.94 119.256 694.94 115.819C694.94 112.383 695.44 109.289 696.234 107.069C696.632 105.957 697.096 105.087 697.591 104.502C698.088 103.915 698.576 103.659 699.03 103.659C699.484 103.659 699.972 103.915 700.468 104.502C700.963 105.087 701.428 105.957 701.825 107.069C702.62 109.289 703.119 112.383 703.119 115.819Z" stroke="black" stroke-width="0.819454"/>
<path d="M707.528 115.819C707.528 117.278 682.624 118.46 669.724 118.46C656.824 118.46 660.294 117.278 660.294 115.819C660.294 114.361 656.824 113.179 669.724 113.179C682.624 113.179 707.528 114.361 707.528 115.819Z" fill="black"/>
<line y1="-0.30368" x2="25.5652" y2="-0.30368" transform="matrix(-0.0130363 0.999916 -0.999986 -0.00523879 663.869 102.827)" stroke="black" stroke-width="0.60736"/>
<ellipse cx="741.5" cy="136.263" rx="4.5" ry="4.26316" fill="black"/>
<rect x="608" y="219.458" width="2.5" height="351" rx="1.25" fill="black"/>
<rect x="587" y="154.458" width="2.5" height="159" rx="1.25" fill="black"/>
<rect x="554" y="422" width="2" height="42" rx="1" fill="black"/>
<circle cx="587" cy="339.458" r="61" stroke="black" stroke-width="4"/>
<path d="M589.072 599.521C589.661 600.104 590.611 600.099 591.193 599.51L600.689 589.914C601.271 589.325 601.266 588.375 600.677 587.792C600.088 587.21 599.139 587.215 598.556 587.803L590.116 596.334L581.586 587.893C580.997 587.311 580.047 587.316 579.464 587.904C578.882 588.493 578.887 589.443 579.476 590.026L589.072 599.521ZM587.5 385.466L588.627 598.463L591.627 598.447L590.5 385.45L587.5 385.466Z" fill="black"/>
<circle cx="586.5" cy="332.958" r="16.5" fill="black"/>
<circle cx="588.5" cy="289.958" r="5.5" fill="black"/>
<circle cx="588.5" cy="381.958" r="5.5" fill="black"/>
<circle cx="527" cy="276.458" r="2.5" fill="black" stroke="black"/>
<path d="M674.904 421.878C674.034 422.634 672.659 422.984 670.619 422.722C668.585 422.46 666.037 421.605 663.017 420.152C656.985 417.25 649.291 412.069 640.447 404.99C622.771 390.842 600.658 369.238 578.311 343.531C555.964 317.824 537.648 292.919 526.098 273.446C520.318 263.703 516.259 255.363 514.224 248.986C513.205 245.793 512.713 243.15 512.737 241.099C512.762 239.043 513.299 237.731 514.17 236.974C515.04 236.217 516.415 235.868 518.455 236.13C520.489 236.391 523.037 237.246 526.057 238.699C532.089 241.602 539.783 246.782 548.627 253.862C566.303 268.01 588.416 289.613 610.763 315.32C633.11 341.028 651.426 365.933 662.976 385.405C668.756 395.149 672.815 403.489 674.85 409.866C675.869 413.058 676.361 415.701 676.336 417.752C676.312 419.808 675.775 421.121 674.904 421.878Z" stroke="black" stroke-width="2"/>
<circle cx="581" cy="335.458" r="21" stroke="black" stroke-width="2"/>
<ellipse cx="549" cy="343.958" rx="6" ry="5.5" fill="black"/>
<path fill-rule="evenodd" clip-rule="evenodd" d="M560.728 415.317C567.318 412.807 572 406.429 572 398.958C572 389.293 564.165 381.458 554.5 381.458C544.835 381.458 537 389.293 537 398.958C537 406.766 542.114 413.38 549.175 415.633C549.822 413.235 552.185 411.458 555 411.458C557.69 411.458 559.967 413.081 560.728 415.317Z" fill="black"/>
<path d="M560.5 416.958C560.5 419.679 558.079 421.958 555 421.958C551.921 421.958 549.5 419.679 549.5 416.958C549.5 414.236 551.921 411.958 555 411.958C558.079 411.958 560.5 414.236 560.5 416.958Z" stroke="black"/>
<line x1="548.5" y1="343.448" x2="549.5" y2="292.448" stroke="black"/>
<line x1="555.168" y1="456.903" x2="565.168" y2="441.903" stroke="black" stroke-width="2"/>
<line x1="555.168" y1="463.903" x2="565.168" y2="448.903" stroke="black" stroke-width="2"/>
<line y1="-1" x2="18.0278" y2="-1" transform="matrix(-0.5547 -0.83205 -0.83205 0.5547 554 463.458)" stroke="black" stroke-width="2"/>
<path d="M549.449 183.978C559.721 183.859 569.63 176.197 573.3 172.381C556.22 185.405 545.538 183.755 542.333 181.302C541.162 181.206 537.841 179.497 533.917 173.422C529.993 167.348 531.417 158.304 532.619 154.541C534.254 150.254 540.255 142.142 551.18 143.985C562.106 145.829 570.768 151.79 573.733 154.541L588.976 166.583V163.164C587.999 162.098 583.581 158.198 573.733 151.121C563.885 144.045 554.595 141.879 551.18 141.681C546.869 140.938 537.12 141.666 532.619 150.527C528.118 159.388 530.423 169.482 532.138 173.422C533.629 176.99 539.178 184.097 549.449 183.978Z" fill="black"/>
<path d="M549.449 183.978C559.721 183.859 569.63 176.197 573.3 172.381C556.22 185.405 545.538 183.755 542.333 181.302C541.162 181.206 537.841 179.497 533.917 173.422C529.993 167.348 531.417 158.304 532.619 154.541C534.254 150.254 540.255 142.142 551.18 143.985C562.106 145.829 570.768 151.79 573.733 154.541L588.976 166.583V163.164C587.999 162.098 583.581 158.198 573.733 151.121C563.885 144.045 554.595 141.879 551.18 141.681C546.869 140.938 537.12 141.666 532.619 150.527C528.118 159.388 530.423 169.482 532.138 173.422C533.629 176.99 539.178 184.097 549.449 183.978Z" fill="black"/>
<path d="M549.449 183.978C559.721 183.859 569.63 176.197 573.3 172.381C556.22 185.405 545.538 183.755 542.333 181.302C541.162 181.206 537.841 179.497 533.917 173.422C529.993 167.348 531.417 158.304 532.619 154.541C534.254 150.254 540.255 142.142 551.18 143.985C562.106 145.829 570.768 151.79 573.733 154.541L588.976 166.583V163.164C587.999 162.098 583.581 158.198 573.733 151.121C563.885 144.045 554.595 141.879 551.18 141.681C546.869 140.938 537.12 141.666 532.619 150.527C528.118 159.388 530.423 169.482 532.138 173.422C533.629 176.99 539.178 184.097 549.449 183.978Z" fill="black"/>
<path d="M549.449 183.978C559.721 183.859 569.63 176.197 573.3 172.381C556.22 185.405 545.538 183.755 542.333 181.302C541.162 181.206 537.841 179.497 533.917 173.422C529.993 167.348 531.417 158.304 532.619 154.541C534.254 150.254 540.255 142.142 551.18 143.985C562.106 145.829 570.768 151.79 573.733 154.541L588.976 166.583V163.164C587.999 162.098 583.581 158.198 573.733 151.121C563.885 144.045 554.595 141.879 551.18 141.681C546.869 140.938 537.12 141.666 532.619 150.527C528.118 159.388 530.423 169.482 532.138 173.422C533.629 176.99 539.178 184.097 549.449 183.978Z" fill="black"/>
<path d="M623.551 141.459C613.279 141.578 603.37 149.24 599.7 153.056C616.78 140.032 627.462 141.682 630.667 144.135C631.838 144.231 635.159 145.94 639.083 152.015C643.007 158.089 641.583 167.133 640.381 170.896C638.746 175.183 632.745 183.295 621.82 181.452C610.894 179.608 602.232 173.646 599.267 170.896L584.024 158.854V162.273C585.001 163.339 589.419 167.239 599.267 174.315C609.115 181.392 618.405 183.558 621.82 183.756C626.131 184.499 635.88 183.771 640.381 174.91C644.882 166.049 642.577 155.955 640.862 152.015C639.371 148.447 633.822 141.34 623.551 141.459Z" fill="black"/>
<path d="M623.551 141.459C613.279 141.578 603.37 149.24 599.7 153.056C616.78 140.032 627.462 141.682 630.667 144.135C631.838 144.231 635.159 145.94 639.083 152.015C643.007 158.089 641.583 167.133 640.381 170.896C638.746 175.183 632.745 183.295 621.82 181.452C610.894 179.608 602.232 173.646 599.267 170.896L584.024 158.854V162.273C585.001 163.339 589.419 167.239 599.267 174.315C609.115 181.392 618.405 183.558 621.82 183.756C626.131 184.499 635.88 183.771 640.381 174.91C644.882 166.049 642.577 155.955 640.862 152.015C639.371 148.447 633.822 141.34 623.551 141.459Z" fill="black"/>
<path d="M623.551 141.459C613.279 141.578 603.37 149.24 599.7 153.056C616.78 140.032 627.462 141.682 630.667 144.135C631.838 144.231 635.159 145.94 639.083 152.015C643.007 158.089 641.583 167.133 640.381 170.896C638.746 175.183 632.745 183.295 621.82 181.452C610.894 179.608 602.232 173.646 599.267 170.896L584.024 158.854V162.273C585.001 163.339 589.419 167.239 599.267 174.315C609.115 181.392 618.405 183.558 621.82 183.756C626.131 184.499 635.88 183.771 640.381 174.91C644.882 166.049 642.577 155.955 640.862 152.015C639.371 148.447 633.822 141.34 623.551 141.459Z" fill="black"/>
<path d="M623.551 141.459C613.279 141.578 603.37 149.24 599.7 153.056C616.78 140.032 627.462 141.682 630.667 144.135C631.838 144.231 635.159 145.94 639.083 152.015C643.007 158.089 641.583 167.133 640.381 170.896C638.746 175.183 632.745 183.295 621.82 181.452C610.894 179.608 602.232 173.646 599.267 170.896L584.024 158.854V162.273C585.001 163.339 589.419 167.239 599.267 174.315C609.115 181.392 618.405 183.558 621.82 183.756C626.131 184.499 635.88 183.771 640.381 174.91C644.882 166.049 642.577 155.955 640.862 152.015C639.371 148.447 633.822 141.34 623.551 141.459Z" fill="black"/>
<ellipse cx="588" cy="150.058" rx="6" ry="6.6" fill="black"/>
</svg>
